<?xml version="1.0" encoding="iso-8859-1"?>
<!-- Generator: Adobe Illustrator 19.0.0, SVG Export Plug-In . SVG Version: 6.00 Build 0)  -->
<svg version="1.1" id="Capa_1" xmlns="http://www.w3.org/2000/svg" xmlns:xlink="http://www.w3.org/1999/xlink" x="0px" y="0px"
	 viewBox="0 0 512 512" style="enable-background:new 0 0 512 512;" xml:space="preserve">
<path style="fill:#DFE3E5;" d="M165.61,346.831c-1.63,0-3.285-0.205-4.935-0.635L92.72,328.523
	c-32.26-8.391-54.791-37.531-54.791-70.863v-68.302c0-28.549,23.226-51.775,51.775-51.775h75.892
	c10.798,0,19.552,8.754,19.552,19.552c0,10.799-8.754,19.552-19.552,19.552H89.704c-6.986,0-12.67,5.684-12.67,12.67v68.302
	c0,15.531,10.498,29.109,25.529,33.018l67.954,17.673c10.451,2.718,16.719,13.393,14.001,23.844
	C182.23,340.996,174.298,346.831,165.61,346.831z"/>
<path style="opacity:0.1;enable-background:new    ;" d="M165.61,346.831c8.688,0,16.621-5.835,18.909-14.636
	c2.718-10.451-3.55-21.126-14.001-23.844l-45.431-11.816v40.406l35.588,9.256C162.325,346.626,163.98,346.831,165.61,346.831z"/>
<path style="opacity:0.1;enable-background:new    ;" d="M165.596,137.583h-40.51v39.105h40.51c10.798,0,19.552-8.754,19.552-19.552
	C185.148,146.337,176.395,137.583,165.596,137.583z"/>
<path style="fill:#F7CF66;" d="M441.088,456.771H157.775V133.393c0-8.003,6.487-14.49,14.49-14.49h254.333
	c8.003,0,14.49,6.487,14.49,14.49L441.088,456.771L441.088,456.771z"/>
<path style="fill:#FFF0C0;" d="M441.088,478.202c0,18.666-15.132,33.798-33.798,33.798H191.573
	c-18.666,0-33.798-15.132-33.798-33.798v-21.431h283.313L441.088,478.202L441.088,478.202z"/>
<g>
	<ellipse style="fill:#FFFFFF;" cx="217" cy="325.74" rx="30.416" ry="24.22"/>
	<ellipse style="fill:#FFFFFF;" cx="381.86" cy="325.74" rx="30.416" ry="24.22"/>
</g>
<g>
	<path style="fill:#495059;" d="M364.138,309.08c-4.143,0-7.5-3.358-7.5-7.5v-10.741c0-4.142,3.357-7.5,7.5-7.5s7.5,3.358,7.5,7.5
		v10.741C371.638,305.722,368.28,309.08,364.138,309.08z"/>
	<path style="fill:#495059;" d="M299.432,317.328c-8.705,0-16.984-3.77-22.714-10.344c-2.721-3.123-2.397-7.86,0.727-10.582
		c3.122-2.722,7.859-2.397,10.582,0.726c2.88,3.305,7.037,5.2,11.405,5.2s8.525-1.895,11.405-5.2
		c2.722-3.122,7.459-3.448,10.582-0.726c3.123,2.721,3.447,7.459,0.727,10.582C316.416,313.558,308.137,317.328,299.432,317.328z"/>
	<path style="fill:#495059;" d="M247.415,307.294c-4.142,0-7.5-3.358-7.5-7.5c0-2.861-2.328-5.19-5.189-5.19
		c-2.861,0-5.189,2.328-5.189,5.19c0,4.142-3.358,7.5-7.5,7.5s-7.5-3.358-7.5-7.5c0-11.132,9.057-20.19,20.189-20.19
		c11.132,0,20.189,9.057,20.189,20.19C254.915,303.936,251.558,307.294,247.415,307.294z"/>
</g>
<path style="opacity:0.3;fill:#C97B00;enable-background:new    ;" d="M202.731,190.799c1.374,0.075,2.756,0.118,4.149,0.118
	c20.987,0,39.957-8.596,53.606-22.451c4.991-5.066,12.531-6.65,19.091-3.904c8.926,3.737,18.722,5.807,29.006,5.807h0.355
	c8.123-0.008,14.713,6.575,14.713,14.698v44.787c0,15.326,12.424,27.749,27.749,27.749l0,0c15.326,0,27.749-12.424,27.749-27.749
	v-20.567c0-7.706,6.547-13.758,14.234-13.206c1.784,0.128,3.585,0.194,5.402,0.194c15.688,0,30.244-4.812,42.303-13.021v-49.861
	c0-8.003-6.487-14.49-14.49-14.49H172.265c-8.003,0-14.49,6.487-14.49,14.49v323.378v21.431c0,18.666,15.132,33.798,33.798,33.798
	h136.235C212.961,476.706,201.673,312.216,202.731,190.799z"/>
<path style="fill:#FFF0C0;" d="M402.977,26.02c-7.772-0.423-15.301,0.339-22.429,2.116c-6.405,1.597-13.226-0.369-17.81-5.12
	C349.051,8.83,329.853,0,308.583,0c-20.723,0-39.48,8.381-53.089,21.931c-5.362,5.339-13.308,6.982-20.317,4.131
	c-10.002-4.068-21.074-6.05-32.683-5.389c-39.174,2.23-70.339,34.842-70.892,74.076c-0.592,42.076,33.338,76.371,75.278,76.371
	c20.987,0,39.957-8.596,53.606-22.451c4.991-5.066,12.531-6.65,19.091-3.904c8.926,3.737,18.722,5.807,29.006,5.807h0.355
	c8.123-0.008,14.713,6.575,14.713,14.698v44.787c0,15.326,12.424,27.749,27.749,27.749l0,0c15.326,0,27.749-12.424,27.749-27.749
	V189.49c0-7.706,6.547-13.758,14.234-13.206c1.784,0.128,3.585,0.194,5.402,0.194c42.726,0,77.139-35.591,75.208-78.743
	C472.276,59.354,441.339,28.109,402.977,26.02z"/>
<g>
	<path style="opacity:0.2;fill:#C97B00;enable-background:new    ;" d="M372.777,227.748c-33.984,6.282-32.099-55.905-30.595-93.251
		c0.357-8.868-7.093-16.143-15.939-15.422c-18.981,1.547-39.833-1.574-53.647-5.896c-5.724-1.791-11.921-1.358-17.376,1.136
		c-91.895,42.008-96.366-59.451-62.154-92.481c-34.631,6.463-60.958,36.887-61.465,72.913
		c-0.592,42.076,33.338,76.371,75.278,76.371c20.987,0,39.957-8.596,53.606-22.451c4.991-5.066,12.531-6.65,19.091-3.904
		c8.926,3.737,18.722,5.807,29.005,5.807h0.356c8.123-0.008,14.712,6.575,14.712,14.698v44.787
		c0,15.326,12.424,27.749,27.749,27.749l0,0C360.001,237.805,367.687,233.891,372.777,227.748z"/>
	<g style="opacity:0.2;">
		<circle style="fill:#C97B00;" cx="229.54" cy="102.99" r="7.503"/>
		<circle style="fill:#C97B00;" cx="296.41" cy="45.31" r="7.503"/>
		<circle style="fill:#C97B00;" cx="436.17" cy="95.49" r="7.503"/>
	</g>
</g>
<g>
</g>
<g>
</g>
<g>
</g>
<g>
</g>
<g>
</g>
<g>
</g>
<g>
</g>
<g>
</g>
<g>
</g>
<g>
</g>
<g>
</g>
<g>
</g>
<g>
</g>
<g>
</g>
<g>
</g>
</svg>