<svg id="Capa_1" enable-background="new 0 0 512 512" height="512" viewBox="0 0 512 512" width="512" xmlns="http://www.w3.org/2000/svg"><g><path d="m373.143 51.406c-49.438.074-92.764 26.034-117.254 65.017-24.603-38.909-68.008-64.74-117.447-64.667-76.574.116-138.556 62.284-138.442 138.857.091 60.749 44.35 128.833 102.023 185.676v-128.243l154.04-57.831 154.041 57.831v128.204c57.712-57.1 101.986-125.503 101.896-186.402-.115-76.574-62.282-138.556-138.857-138.442z" fill="#f4c8d2"/><path d="m102.023 248.046v128.242c38.81 38.252 83.692 71.415 125.287 93.817 18.222 9.814 40.022 9.783 58.214-.086 41.376-22.444 85.982-55.58 124.58-93.77v-128.203l-154.041-57.832z" fill="#fbf1cf"/><path d="m102.023 248.046v58.893c.97-.287 1.937-.594 2.893-.942l150.393-54.738c.242-.088.497-.133.755-.133.259 0 .513.045.755.133l150.392 54.738c.957.348 1.923.655 2.894.942v-58.893l-154.041-57.832z" fill="#fae0bd"/><path d="m326.821 373.234c0-12.988-10.529-23.516-23.516-23.516h-94.482c-12.988 0-23.516 10.529-23.516 23.516v71.315c14.135 9.555 28.25 18.149 42.004 25.557 18.222 9.814 40.022 9.783 58.214-.086 13.527-7.338 27.401-15.827 41.297-25.253v-71.533z" fill="#e0b799"/><path d="m150.191 127.134c-4.023 2.183-8.844 2.19-12.874.019-22.869-12.317-50.237-39.336-50.271-61.812-.025-16.935 13.682-30.683 30.617-30.709 10.934-.016 20.533 5.697 25.974 14.301 5.416-8.621 14.998-14.362 25.931-14.379 16.935-.025 30.684 13.682 30.709 30.617.033 22.478-27.254 49.578-50.086 61.963z" fill="#e7889d"/><g><g fill="#eda1ab"><ellipse cx="175.322" cy="316.195" rx="29.792" ry="23.725"/><ellipse cx="336.806" cy="316.195" rx="29.792" ry="23.725"/></g><g fill="#4e5660"><path d="m206.865 297.878c-4.142 0-7.5-3.358-7.5-7.5 0-3.684-2.997-6.681-6.681-6.681s-6.681 2.997-6.681 6.681c0 4.142-3.358 7.5-7.5 7.5s-7.5-3.358-7.5-7.5c0-11.955 9.726-21.681 21.681-21.681s21.681 9.726 21.681 21.681c0 4.143-3.358 7.5-7.5 7.5z"/><path d="m333.624 297.878c-4.143 0-7.5-3.358-7.5-7.5 0-3.684-2.997-6.681-6.681-6.681s-6.681 2.997-6.681 6.681c0 4.142-3.357 7.5-7.5 7.5s-7.5-3.358-7.5-7.5c0-11.955 9.726-21.681 21.681-21.681s21.681 9.726 21.681 21.681c0 4.143-3.357 7.5-7.5 7.5z"/><path d="m256.064 321.305c-7.933 0-15.476-3.436-20.696-9.426-2.721-3.123-2.396-7.86.727-10.582 3.122-2.721 7.86-2.396 10.582.727 2.371 2.72 5.792 4.28 9.388 4.28 3.595 0 7.017-1.56 9.387-4.28 2.72-3.123 7.458-3.448 10.582-.727 3.122 2.721 3.448 7.459.727 10.582-5.221 5.991-12.765 9.426-20.697 9.426z"/></g></g><ellipse cx="292.664" cy="407.672" fill="#4e5660" rx="7.893" ry="7.893" transform="matrix(.939 -.343 .343 .939 -121.987 124.983)"/><path d="m185.306 231.023h-83.283v-98.134c0-8.186 6.636-14.823 14.823-14.823h53.638c8.186 0 14.823 6.636 14.823 14.823v98.134z" fill="#e0b799"/><path d="m185.306 146.551-83.283 30.313v54.159h83.283z" fill="#d1986f"/><path d="m281.049 166.069 143.863 52.362c8.287 3.016 13.802 10.893 13.802 19.711v21.992c0 10.28-10.216 17.433-19.876 13.917l-150.392-54.738c-7.998-2.911-16.766-2.911-24.764 0l-150.393 54.739c-9.66 3.516-19.876-3.638-19.876-13.917v-21.992c0-8.818 5.516-16.695 13.802-19.711l143.863-52.362c16.14-5.875 33.832-5.875 49.971-.001z" fill="#8daee1"/></g></svg>