<?xml version="1.0" standalone="no"?>
<!DOCTYPE svg PUBLIC "-//W3C//DTD SVG 20010904//EN"
 "http://www.w3.org/TR/2001/REC-SVG-20010904/DTD/svg10.dtd">
<svg version="1.0" xmlns="http://www.w3.org/2000/svg"
 width="1000.000000pt" height="1000.000000pt" viewBox="0 0 1000.000000 1000.000000"
 preserveAspectRatio="xMidYMid meet">
<metadata>
Created by potrace 1.11, written by Peter Selinger 2001-2013
</metadata>
<g transform="translate(0.000000,1000.000000) scale(0.100000,-0.100000)"
fill="#000000" stroke="none">
<path d="M4967 9982 c-16 -2 -232 -76 -480 -164 -249 -88 -488 -172 -532 -188
-132 -46 -441 -155 -595 -210 -80 -28 -165 -58 -190 -66 -25 -8 -54 -19 -65
-24 -11 -5 -67 -25 -125 -45 -209 -73 -744 -261 -920 -325 -63 -22 -122 -43
-130 -45 -16 -5 -164 -58 -190 -68 -8 -3 -177 -63 -375 -133 -198 -69 -423
-149 -500 -176 -77 -27 -165 -58 -195 -68 -219 -71 -295 -155 -284 -316 6 -89
15 -178 29 -289 2 -16 6 -57 10 -90 8 -80 15 -144 20 -180 2 -16 7 -57 10 -90
8 -82 14 -136 21 -192 3 -27 7 -68 10 -93 2 -25 8 -85 14 -135 15 -130 19
-163 25 -230 3 -33 7 -71 10 -85 2 -14 7 -52 10 -85 3 -33 8 -73 10 -90 2 -16
6 -59 10 -95 3 -36 8 -74 10 -85 2 -11 7 -56 10 -100 4 -44 8 -87 10 -95 2 -8
7 -46 10 -85 4 -38 8 -77 10 -85 2 -8 7 -51 11 -95 3 -44 8 -88 9 -97 2 -9 6
-45 10 -80 3 -35 8 -81 11 -103 10 -82 13 -111 19 -172 3 -34 7 -70 9 -80 2
-10 7 -56 11 -103 4 -47 8 -87 10 -90 1 -3 6 -36 9 -75 4 -38 8 -86 11 -105 2
-19 7 -57 10 -85 3 -27 12 -108 20 -180 8 -71 17 -155 20 -185 11 -109 26
-237 40 -360 2 -19 7 -64 11 -100 3 -36 8 -76 9 -90 2 -14 6 -56 10 -95 3 -38
8 -77 10 -85 2 -8 7 -49 10 -90 4 -41 9 -83 10 -92 2 -9 7 -48 10 -85 4 -37
13 -122 20 -188 8 -66 17 -147 20 -180 3 -33 8 -76 10 -95 3 -19 7 -56 10 -82
9 -80 15 -136 20 -185 3 -27 8 -67 10 -90 3 -24 8 -64 11 -90 4 -27 7 -64 9
-83 6 -87 27 -259 36 -299 22 -99 64 -143 212 -225 23 -13 168 -93 322 -178
154 -86 303 -168 330 -183 28 -15 76 -43 108 -61 32 -19 60 -34 62 -34 2 0 70
-38 152 -83 81 -46 175 -98 208 -117 33 -18 99 -54 146 -81 48 -27 95 -49 106
-49 50 0 48 -61 49 1379 0 1429 1 1408 -47 1516 -61 137 -207 311 -426 507
-52 46 -67 73 -59 109 4 22 401 536 575 745 14 17 40 48 56 69 55 70 60 75 90
84 41 11 57 4 155 -73 47 -36 99 -76 115 -88 56 -41 272 -265 320 -333 47 -65
128 -221 156 -299 8 -22 24 -43 38 -49 25 -12 19 -16 127 103 220 244 526 438
859 544 83 27 274 69 360 81 28 4 61 8 75 10 158 22 548 22 613 0 7 -2 28 -6
47 -9 46 -7 77 -14 100 -21 10 -3 27 -7 37 -9 35 -7 159 -53 218 -82 239 -113
460 -339 574 -586 33 -71 73 -182 86 -238 2 -8 10 -44 19 -80 8 -36 18 -92 22
-125 3 -33 8 -63 10 -67 3 -4 7 -90 11 -192 l6 -184 -26 -26 c-20 -20 -37 -26
-69 -26 -24 -1 -284 -3 -578 -6 -294 -3 -550 -2 -567 1 -49 9 -56 33 -58 185
-2 164 -7 197 -46 277 -52 109 -137 157 -279 157 -172 2 -298 -69 -515 -288
-197 -199 -384 -468 -613 -882 -89 -162 -83 -31 -80 -1521 l3 -1321 24 -26
c14 -15 52 -41 85 -60 34 -18 120 -66 191 -106 72 -40 148 -82 170 -94 418
-233 422 -235 500 -236 54 0 108 22 250 102 44 25 105 58 135 75 30 16 156 86
280 155 124 69 248 138 275 153 28 15 80 45 117 66 36 22 69 39 71 39 3 0 60
32 127 70 67 39 123 70 125 70 2 0 50 26 107 58 121 69 209 118 363 202 33 18
89 49 125 70 36 21 92 52 125 70 97 53 140 77 222 123 43 24 105 59 138 77 33
18 80 44 105 58 25 13 74 40 110 60 36 19 107 59 158 89 51 29 95 53 97 53 2
0 26 13 53 29 59 35 128 73 307 171 33 18 95 53 138 77 42 24 99 55 125 69
206 114 315 179 340 204 41 41 70 105 77 170 3 30 7 66 10 80 2 14 7 54 10 90
3 36 10 99 15 140 5 41 12 102 15 135 3 33 7 71 10 85 2 14 6 54 10 90 3 36 7
79 10 96 2 17 7 60 10 95 4 35 8 78 11 94 2 17 6 59 9 95 4 36 8 76 10 90 2
14 7 52 10 85 3 33 8 71 10 85 3 14 7 54 10 90 4 36 8 76 10 90 2 14 6 54 10
90 6 66 10 104 19 175 3 22 8 69 11 105 3 36 8 76 10 90 2 14 7 50 10 80 3 30
8 71 10 90 2 19 7 64 10 100 4 36 8 76 10 90 2 14 7 54 11 90 3 36 7 76 9 90
1 14 6 54 9 90 4 36 8 76 11 90 2 14 7 54 11 90 3 36 8 79 10 95 2 17 6 58 10
93 3 35 7 71 9 80 1 9 6 51 10 92 4 41 9 82 10 91 2 9 6 52 10 95 3 43 8 86
10 94 2 8 7 44 10 80 3 36 8 81 10 100 3 19 7 62 11 95 3 33 8 71 9 85 2 14 8
72 14 130 13 120 21 188 36 320 2 19 7 62 10 95 3 33 8 76 10 95 11 83 16 131
30 260 8 80 17 158 20 180 2 14 7 54 10 90 3 36 7 76 9 90 2 14 7 56 11 94 4
38 8 79 10 90 2 12 6 53 10 91 3 39 8 84 10 100 6 44 26 224 30 265 2 19 7 67
11 105 18 154 5 222 -54 287 -44 49 -88 72 -222 118 -14 4 -90 31 -170 60 -80
29 -156 56 -170 60 -14 4 -88 31 -165 58 -77 27 -257 91 -400 141 -143 51
-289 103 -325 116 -36 13 -105 38 -155 55 -350 123 -468 164 -525 185 -36 13
-143 51 -238 84 -94 33 -250 88 -345 122 -94 33 -248 88 -342 121 -93 32 -200
70 -236 84 -36 13 -79 28 -95 33 -16 5 -85 29 -154 54 -604 216 -946 333 -985
339 -16 2 -43 2 -58 0z"/>
</g>
</svg>
