<svg id="Capa_1" enable-background="new 0 0 512 512" height="512" viewBox="0 0 512 512" width="512" xmlns="http://www.w3.org/2000/svg"><g><g><path d="m412.447 157.627c-1.229 0-2.474-.302-3.625-.938l-152.822-84.578-152.823 84.578c-3.624 2.007-8.188.693-10.194-2.931-2.005-3.624-.693-8.188 2.931-10.194l156.455-86.588c2.26-1.25 5.004-1.25 7.264 0l156.454 86.588c3.624 2.006 4.936 6.57 2.931 10.194-1.371 2.473-3.931 3.869-6.571 3.869z" fill="#c3d5ef"/></g><path d="m434.975 500.75h-357.95v-28.075l18.861-18.53h315.622l23.467 18.53z" fill="#365e7d"/><path d="m411.508 454.145h-21.574l23.467 18.53v28.075h21.574v-28.075z" fill="#2b4d66"/><path d="m434.975 472.675h-357.95v-131.317c0-1.677 1.36-3.037 3.037-3.037h351.877c1.677 0 3.037 1.36 3.037 3.037v131.317z" fill="#df6b57"/><path d="m413.401 338.322v134.353h21.574v-131.317c0-1.677-1.36-3.037-3.037-3.037h-18.537z" fill="#dd544f"/><g><g><path d="m130.837 454.079h-8.646c-4.143 0-7.5-3.357-7.5-7.5v-81.394c0-4.143 3.357-7.5 7.5-7.5h8.646c4.143 0 7.5 3.357 7.5 7.5s-3.357 7.5-7.5 7.5h-1.146v66.394h1.146c4.143 0 7.5 3.357 7.5 7.5s-3.358 7.5-7.5 7.5z" fill="#365e7d"/></g><g><path d="m182.631 454.079h-8.646c-4.143 0-7.5-3.357-7.5-7.5v-81.394c0-4.143 3.357-7.5 7.5-7.5h8.646c4.143 0 7.5 3.357 7.5 7.5s-3.357 7.5-7.5 7.5h-1.146v66.394h1.146c4.143 0 7.5 3.357 7.5 7.5s-3.358 7.5-7.5 7.5z" fill="#365e7d"/></g><g><path d="m234.426 454.079h-8.646c-4.143 0-7.5-3.357-7.5-7.5v-81.394c0-4.143 3.357-7.5 7.5-7.5h8.646c4.143 0 7.5 3.357 7.5 7.5s-3.357 7.5-7.5 7.5h-1.146v66.394h1.146c4.143 0 7.5 3.357 7.5 7.5s-3.358 7.5-7.5 7.5z" fill="#365e7d"/></g><g><path d="m286.22 454.079h-8.646c-4.143 0-7.5-3.357-7.5-7.5v-81.394c0-4.143 3.357-7.5 7.5-7.5h8.646c4.143 0 7.5 3.357 7.5 7.5s-3.357 7.5-7.5 7.5h-1.146v66.394h1.146c4.143 0 7.5 3.357 7.5 7.5s-3.358 7.5-7.5 7.5z" fill="#365e7d"/></g><g><path d="m338.015 454.079h-8.646c-4.143 0-7.5-3.357-7.5-7.5v-81.394c0-4.143 3.357-7.5 7.5-7.5h8.646c4.143 0 7.5 3.357 7.5 7.5s-3.357 7.5-7.5 7.5h-1.146v66.394h1.146c4.143 0 7.5 3.357 7.5 7.5s-3.358 7.5-7.5 7.5z" fill="#365e7d"/></g><g><path d="m389.809 454.079h-8.646c-4.143 0-7.5-3.357-7.5-7.5v-81.394c0-4.143 3.357-7.5 7.5-7.5h8.646c4.143 0 7.5 3.357 7.5 7.5s-3.357 7.5-7.5 7.5h-1.146v66.394h1.146c4.143 0 7.5 3.357 7.5 7.5s-3.358 7.5-7.5 7.5z" fill="#365e7d"/></g></g><path d="m431.938 297.633h-351.877c-1.677 0-3.037-1.36-3.037-3.037v-25.038l18.862-18.53h315.622l23.467 18.53v25.038c0 1.677-1.36 3.037-3.037 3.037z" fill="#365e7d"/><path d="m411.508 251.028h-21.574l23.467 18.53v28.074h18.537c1.677 0 3.037-1.36 3.037-3.037v-25.038z" fill="#2b4d66"/><path d="m434.975 269.559h-357.95v-131.318c0-1.677 1.36-3.037 3.037-3.037h351.877c1.677 0 3.037 1.36 3.037 3.037v131.318z" fill="#b3e59f"/><path d="m413.401 135.205v134.354h21.574v-131.317c0-1.677-1.36-3.037-3.037-3.037z" fill="#95d6a4"/><g><g><path d="m130.837 250.962h-8.646c-4.143 0-7.5-3.357-7.5-7.5v-81.394c0-4.143 3.357-7.5 7.5-7.5h8.646c4.143 0 7.5 3.357 7.5 7.5s-3.357 7.5-7.5 7.5h-1.146v66.394h1.146c4.143 0 7.5 3.357 7.5 7.5s-3.358 7.5-7.5 7.5z" fill="#365e7d"/></g><g><path d="m182.631 250.962h-8.646c-4.143 0-7.5-3.357-7.5-7.5v-81.394c0-4.143 3.357-7.5 7.5-7.5h8.646c4.143 0 7.5 3.357 7.5 7.5s-3.357 7.5-7.5 7.5h-1.146v66.394h1.146c4.143 0 7.5 3.357 7.5 7.5s-3.358 7.5-7.5 7.5z" fill="#365e7d"/></g><g><path d="m234.426 250.962h-8.646c-4.143 0-7.5-3.357-7.5-7.5v-81.394c0-4.143 3.357-7.5 7.5-7.5h8.646c4.143 0 7.5 3.357 7.5 7.5s-3.357 7.5-7.5 7.5h-1.146v66.394h1.146c4.143 0 7.5 3.357 7.5 7.5s-3.358 7.5-7.5 7.5z" fill="#365e7d"/></g><g><path d="m286.22 250.962h-8.646c-4.143 0-7.5-3.357-7.5-7.5v-81.394c0-4.143 3.357-7.5 7.5-7.5h8.646c4.143 0 7.5 3.357 7.5 7.5s-3.357 7.5-7.5 7.5h-1.146v66.394h1.146c4.143 0 7.5 3.357 7.5 7.5s-3.358 7.5-7.5 7.5z" fill="#365e7d"/></g><g><path d="m338.015 250.962h-8.646c-4.143 0-7.5-3.357-7.5-7.5v-81.394c0-4.143 3.357-7.5 7.5-7.5h8.646c4.143 0 7.5 3.357 7.5 7.5s-3.357 7.5-7.5 7.5h-1.146v66.394h1.146c4.143 0 7.5 3.357 7.5 7.5s-3.358 7.5-7.5 7.5z" fill="#365e7d"/></g><g><path d="m389.809 250.962h-8.646c-4.143 0-7.5-3.357-7.5-7.5v-81.394c0-4.143 3.357-7.5 7.5-7.5h8.646c4.143 0 7.5 3.357 7.5 7.5s-3.357 7.5-7.5 7.5h-1.146v66.394h1.146c4.143 0 7.5 3.357 7.5 7.5s-3.358 7.5-7.5 7.5z" fill="#365e7d"/></g></g><path d="m285.939 26.92h-59.879c-2.354 0-4.262-1.908-4.262-4.262v-14.646c0-2.354 1.908-4.262 4.262-4.262h59.878c2.354 0 4.262 1.908 4.262 4.262v14.646c.001 2.354-1.907 4.262-4.261 4.262z" fill="#365e7d"/><g><path d="m255.577 83.082c-12.464 0-22.604-10.141-22.604-22.605 0-9.837 6.315-18.226 15.104-21.325v-12.232c0-4.143 3.357-7.5 7.5-7.5s7.5 3.357 7.5 7.5v18.452c0 4.143-3.357 7.5-7.5 7.5-4.193 0-7.604 3.411-7.604 7.604s3.411 7.605 7.604 7.605 7.605-3.412 7.605-7.605c0-4.143 3.357-7.5 7.5-7.5s7.5 3.357 7.5 7.5c.001 12.466-10.14 22.606-22.605 22.606z" fill="#365e7d"/></g><g><path d="m504.5 508.25h-497c-4.143 0-7.5-3.357-7.5-7.5s3.357-7.5 7.5-7.5h497c4.143 0 7.5 3.357 7.5 7.5s-3.357 7.5-7.5 7.5z" fill="#95d6a4"/></g></g></svg>