<?xml version="1.0" encoding="iso-8859-1"?>
<!-- Generator: Adobe Illustrator 19.0.0, SVG Export Plug-In . SVG Version: 6.00 Build 0)  -->
<svg version="1.1" id="Capa_1" xmlns="http://www.w3.org/2000/svg" xmlns:xlink="http://www.w3.org/1999/xlink" x="0px" y="0px"
	 viewBox="0 0 511.997 511.997" style="enable-background:new 0 0 511.997 511.997;" xml:space="preserve">
<path style="fill:#F7B96D;" d="M265.046,482.841c15.022-15.055,43.749-48.431,46.56-85.865
	c2.484-33.076-23.096-62.096-56.263-61.714c-30.532,0.351-55.174,25.211-55.174,55.826c0,39.758,30.925,75.852,46.743,91.713
	C251.915,487.818,260.042,487.857,265.046,482.841z"/>
<path style="fill:#FDE27C;" d="M260.378,434.335c7.294-7.31,21.243-23.516,22.607-41.692c1.206-16.06-11.214-30.151-27.319-29.966
	c-14.825,0.171-26.79,12.241-26.79,27.107c0,19.305,15.016,36.83,22.696,44.532C254.001,436.752,257.948,436.771,260.378,434.335z"
	/>
<path style="fill:#5B6EA2;" d="M305.992,378.756h-99.986c-6.644,0-12.03-5.386-12.03-12.03v-29.057h124.046v29.057
	C318.022,373.37,312.635,378.756,305.992,378.756z"/>
<g style="opacity:0.1;">
	<rect x="269.169" y="337.67" width="15" height="41.09"/>
	<rect x="227.829" y="337.67" width="15" height="41.09"/>
</g>
<g>
	<circle style="fill:#F7B96D;" cx="325.999" cy="469.18" r="17.4"/>
	<circle style="fill:#F7B96D;" cx="195.409" cy="495.57" r="16.427"/>
</g>
<g>
	<path style="fill:#EC7887;" d="M167.555,249.562l-23.506,13.54c-41.673,24.004-59.441,74.936-41.741,119.652l0,0
		c4.047,10.224,18.831,9.233,21.477-1.441l0,0c7.191-29.011,32.382-49.995,62.215-51.824l0,0L167.555,249.562z"/>
	<path style="fill:#EC7887;" d="M344.443,249.562l23.506,13.54c41.673,24.004,59.441,74.936,41.741,119.652l0,0
		c-4.047,10.224-18.831,9.233-21.477-1.441l0,0c-7.191-29.011-32.382-49.995-62.215-51.824l0,0L344.443,249.562z"/>
</g>
<path style="opacity:0.1;enable-background:new    ;" d="M367.949,263.102l-23.506-13.54l-18.445,79.927l0,0
	c11.428,0.701,22.169,4.22,31.483,9.917c1.847-2.992,3.304-6.269,4.28-9.772c5.901-21.177,10.279-41.894,13.141-62.112
	C372.661,265.967,370.35,264.485,367.949,263.102z"/>
<path style="opacity:0.1;enable-background:new    ;" d="M144.049,263.102c-2.401,1.383-4.713,2.865-6.953,4.421
	c2.863,20.218,7.241,40.935,13.141,62.111c0.976,3.503,2.433,6.78,4.28,9.772c9.315-5.697,20.056-9.216,31.483-9.917l0,0
	l-18.445-79.927L144.049,263.102z"/>
<path style="fill:#B8DBFF;" d="M342.495,324.266c43.914-157.602-7.196-262.499-71.061-318.432c-8.828-7.732-22.042-7.732-30.87,0
	c-63.865,55.933-114.975,160.83-71.061,318.432c2.206,7.917,9.42,13.404,17.639,13.404h137.715
	C333.074,337.669,340.289,332.183,342.495,324.266z"/>
<path style="fill:#5B6EA2;" d="M255.999,98.059c25.006,0,50.374-1.546,77.014-9.635c-16.002-34.436-37.965-61.932-61.681-82.679
	c-8.756-7.66-21.909-7.66-30.665,0c-23.716,20.747-45.679,48.243-61.681,82.679C205.625,96.513,230.993,98.059,255.999,98.059z"/>
<circle style="fill:#EEF0F1;" cx="255.999" cy="178.22" r="44.16"/>
<path style="fill:#609AD6;" d="M255.999,234.382c-30.966,0-56.159-25.193-56.159-56.159s25.193-56.159,56.159-56.159
	s56.159,25.193,56.159,56.159S286.965,234.382,255.999,234.382z M255.999,146.065c-17.732,0-32.159,14.426-32.159,32.159
	c0,17.732,14.426,32.159,32.159,32.159c17.732,0,32.159-14.426,32.159-32.159S273.73,146.065,255.999,146.065z"/>
<g>
	<ellipse style="fill:#FFFFFF;" cx="199.739" cy="289.49" rx="20.757" ry="16.53"/>
	<ellipse style="fill:#FFFFFF;" cx="312.259" cy="289.49" rx="20.757" ry="16.53"/>
</g>
<g>
	<path style="fill:#495059;" d="M211.84,280.499c-4.142,0-7.5-3.358-7.5-7.5v-7.33c0-4.142,3.358-7.5,7.5-7.5s7.5,3.358,7.5,7.5
		v7.33C219.34,277.141,215.982,280.499,211.84,280.499z"/>
	<path style="fill:#495059;" d="M300.158,280.499c-4.142,0-7.5-3.358-7.5-7.5v-7.33c0-4.142,3.358-7.5,7.5-7.5s7.5,3.358,7.5,7.5
		v7.33C307.658,277.141,304.299,280.499,300.158,280.499z"/>
	<path style="fill:#495059;" d="M255.999,286.128c-6.63,0-12.934-2.871-17.296-7.876c-2.721-3.123-2.396-7.86,0.727-10.582
		c3.122-2.721,7.859-2.396,10.581,0.727c1.513,1.735,3.695,2.731,5.988,2.731s4.475-0.996,5.988-2.731
		c2.721-3.124,7.459-3.448,10.581-0.727c3.123,2.721,3.448,7.459,0.727,10.582C268.932,283.257,262.629,286.128,255.999,286.128z"/>
</g>
<g>
	<circle style="fill:#B8DBFF;" cx="255.999" cy="78.933" r="7.446"/>
	<circle style="fill:#B8DBFF;" cx="213.799" cy="75.908" r="7.446"/>
	<circle style="fill:#B8DBFF;" cx="298.199" cy="75.908" r="7.446"/>
</g>
<path style="opacity:0.1;enable-background:new    ;" d="M193.976,366.726c0,6.644,5.386,12.03,12.03,12.03h26.745
	c-7.511-4.739-11.679-10.516-13.708-16.238c-1.631-4.599,1.827-9.421,6.706-9.421h92.272v-15.428H193.976V366.726z"/>
<path style="opacity:0.1;enable-background:new    ;" d="M235.592,10.323c-61.494,56.965-108.856,160.455-66.089,313.943
	c2.206,7.917,9.42,13.404,17.638,13.404h51.044C153.527,273.848,191.977,90.42,235.592,10.323z"/>
<g>
</g>
<g>
</g>
<g>
</g>
<g>
</g>
<g>
</g>
<g>
</g>
<g>
</g>
<g>
</g>
<g>
</g>
<g>
</g>
<g>
</g>
<g>
</g>
<g>
</g>
<g>
</g>
<g>
</g>
</svg>
